<svg xmlns="http://www.w3.org/2000/svg" version="1.1" viewBox="-5.0 -10.0 110.0 135.0">
 <path d="m46.258 32.324c-0.67578 1.125-1.0352 2.2266-1.0703 3.2734-0.066406 1.8867 0.87109 3.5234 1.7773 5.1133 0.77344 1.3555 1.5078 2.6406 1.668 4.0625 0.21094 1.8633-0.63672 3.75-1.5781 5.5078-0.11719 0.22266-0.035157 0.49609 0.1875 0.61719 0.066406 0.035156 0.14062 0.054687 0.21484 0.054687 0.16016 0 0.32031-0.085937 0.40234-0.23828 1.0117-1.8867 1.918-3.9258 1.6797-6.0391-0.17969-1.6094-0.99219-3.0312-1.7812-4.4102-0.88281-1.543-1.7148-3-1.6562-4.6289 0.03125-0.89062 0.34766-1.8438 0.94141-2.8359 0.12891-0.21484 0.058593-0.49609-0.15625-0.625-0.22266-0.13672-0.5-0.066406-0.62891 0.14844z"/>
 <path d="m67.824 43.496c-0.054688-0.24609-0.29688-0.39453-0.54688-0.33984-0.22266 0.050781-0.46094 0.10938-0.70703 0.17188-0.91406 0.035156-1.8281-0.046875-2.7227-0.25391-0.125-0.027344-0.25-0.0625-0.375-0.09375-0.34375-0.089844-0.69922-0.18359-1.0859-0.20312-2.1172-0.09375-3.8203 0.80859-5.0508 2.7031-0.93359 1.4414-1.1602 3.1016-1.3828 4.7031l-0.058594 0.41797c-0.054687 0.17578-0.085937 0.35938-0.070312 0.55859 0.015625 0.23828 0.21484 0.42578 0.45312 0.42578h0.03125c0.25-0.015626 0.44141-0.23438 0.42188-0.48438-0.023438-0.35156 0.32812-0.71094 0.67969-1.0156 0.41406-0.36328 0.85547-0.59766 1.2773-0.67969 0.35156-0.070312 0.69141-0.12109 1.0195-0.17578 0.29297-0.046875 0.58203-0.09375 0.86719-0.14844h0.015625c1 0 1.8828-0.46484 2.4766-1.1797 0.16406-0.17578 0.32422-0.36328 0.46484-0.59766 0.15234-0.24609 0.26562-0.5625 0.38281-0.89453 0.125-0.34766 0.26563-0.73828 0.42188-0.92578 0.5625-0.66406 1.4141-0.99609 2.4023-1.2578 0.23438-0.011718 0.46875-0.023437 0.69922-0.046874 0.25-0.027344 0.42969-0.25391 0.40234-0.50391-0.003906-0.023437-0.015625-0.039062-0.019532-0.0625 0.007813-0.039062 0.015626-0.078125 0.003907-0.11719zm-9.3477 5.0078c-0.074218 0.10938-0.52344 0.17969-0.66406 0.24219-0.13672 0.066406-0.5625 0.42188-0.69922 0.28516-0.15625-0.15625 0.097657-0.83203 0.14453-1.0234 0.039063-0.15625 0.14063-0.73047 0.33984-0.75391 0.16016-0.015625 0.34766 0.43359 0.42578 0.53516 0.11328 0.15625 0.58203 0.47656 0.45312 0.71484zm3.9492-1.2422c-0.48828 0.51562-1.1289 0.74609-1.8945 0.90234-1.1758-0.03125-2.6602-1.2852-2.1523-2.5781 0.066406-0.16797 0.16797-0.37109 0.30078-0.57031 0.27734-0.42578 0.67969-0.82812 1.125-0.82812 0.035156 0 0.070312 0.015625 0.10547 0.019531 0.40234 0.054688 0.72266 0.38672 0.72266 0.80469 0 0.45703-0.37109 0.82422-0.82422 0.82422-0.1875 0-0.62109-0.28906-0.50391 0.09375 0.050781 0.16406 0.24609 0.39453 0.39062 0.48828 0.25391 0.17188 0.57813 0.27344 0.88672 0.27344 0.84375 0 1.5273-0.68359 1.5273-1.5273 0-0.28906-0.082031-0.57812-0.23828-0.82031-0.058594-0.089844-0.60938-0.56641-0.32422-0.60156 0.039063-0.003907 0.082031 0.011718 0.12109 0.027343 0.77344 0.33594 1.2617 1.2461 1.2617 2.0664-0.007813 0.54297-0.19922 1.0312-0.50391 1.4258zm1.25-2.3906c-0.12109-0.38281-0.3125-0.73047-0.55859-1.043 0.042968 0.011719 0.085937 0.019531 0.12891 0.03125 0.13672 0.035156 0.26953 0.070313 0.40234 0.10156 0.30078 0.070312 0.60547 0.125 0.91016 0.16797-0.32422 0.20312-0.625 0.44531-0.88281 0.74219z"/>
 <path d="m53.141 40.711c0.90625-1.5859 1.8438-3.2266 1.7773-5.1094-0.035157-1.0469-0.39844-2.1484-1.0703-3.2734-0.12891-0.21484-0.40625-0.28516-0.625-0.15625-0.21484 0.12891-0.28516 0.41016-0.15625 0.625 0.59375 0.99219 0.91016 1.9453 0.94141 2.8359 0.058594 1.6289-0.77344 3.0859-1.6562 4.6289-0.78906 1.3789-1.6016 2.8008-1.7812 4.4102-0.23437 2.1094 0.66797 4.1523 1.6797 6.0391 0.082031 0.15234 0.23828 0.23828 0.40234 0.23828 0.070312 0 0.14453-0.015625 0.21484-0.054688 0.22266-0.11719 0.30469-0.39453 0.1875-0.61719-0.94141-1.7617-1.7852-3.6445-1.5781-5.5078 0.15625-1.4219 0.88672-2.7031 1.6641-4.0586z"/>
 <path d="m60.195 54.23c0.42969-0.023438 0.85547-0.074219 1.2773-0.15625 0.83984-0.16797 1.6602-0.45703 2.4102-0.86719 2.1172-1.1562 3.707-3.2539 4.2461-5.6055 0.054688-0.24609-0.097656-0.48828-0.33984-0.54687-0.24609-0.054688-0.48828 0.097656-0.54687 0.33984-0.48438 2.1016-1.9023 3.9766-3.7969 5.0117-1.8945 1.0352-4.2383 1.2148-6.2695 0.48828-0.23438-0.085937-0.49609 0.039063-0.58203 0.27344s0.039062 0.49609 0.27344 0.58203c0.24609 0.089844 0.49219 0.16406 0.74609 0.22656 0.16016 0.042969 0.40234 0.066407 0.49219 0.22656 0.12109 0.21094 0.035156 0.47656 0 0.69531-0.046875 0.28125-0.070313 0.5625-0.074219 0.84766-0.011719 0.57422 0.046875 1.1445 0.14844 1.7109 0.20703 1.1406 0.58984 2.2422 0.97266 3.332 0.12891 0.36328 0.25391 0.72266 0.37109 1.0781 0.45703 1.3867 0.59375 3.7344 0.67578 5.1367 0.14844 2.5312-0.61719 4.6875-2.0977 5.9062-0.57031 0.47266-1.2539 0.80859-2.0352 1.0078-1.2773 0.32422-2.8125 0.27344-4.5469-0.16797-0.20312-0.050781-0.34375-0.10938-0.33203-0.35547 0.019531-0.38672 0.38281-0.55859 0.70312-0.69141 0.23828-0.097656 0.48438-0.16406 0.73438-0.23828 0.28906-0.082032 0.57422-0.16406 0.85156-0.27734 0.85938-0.35547 1.5703-1.0234 2.0195-1.832 0.22266-0.40625 0.38281-0.84766 0.46094-1.3047 0.039063-0.22266 0.050781-0.44922 0.125-0.66406 0.074219-0.21094 0.19922-0.42188 0.25-0.63281 0.14844-0.625-0.03125-1.2852-0.42188-1.8047-0.36719-0.48438-0.60547-1.0156-0.83203-1.5781-0.19922-0.48828-0.36719-0.98828-0.51562-1.4961-0.29297-1.0273-0.48047-2.0898-0.55469-3.1562-0.007812-0.09375-0.011718-0.18359-0.019531-0.27734-0.085937-1.543 0.058594-3.1016 0.42578-4.6016 0.36328-1.4844 0.94922-2.8789 1.1328-4.4102 0.11328-0.96484 0.042969-1.8711-0.078125-2.832-0.074219-0.59766-0.15234-1.2148-0.16406-1.8047-0.027344-2.0312 0.81641-4.0938 2.2617-5.5234 1.4453-1.4258 3.5234-2.2539 5.5469-2.1953 0.71484 0.019531 1.4453 0.14062 2.0938 0.24609 0.5625 0.09375 1.2031 0.19922 1.7461 0.44922 0.64844 0.29688 1.1875 0.80859 1.5234 1.4414 0.11719 0.22266 0.39453 0.30859 0.61328 0.19141 0.22266-0.11719 0.30859-0.39062 0.19141-0.61328-0.42578-0.80859-1.1172-1.4648-1.9453-1.8438-0.65234-0.30078-1.3555-0.41797-1.9766-0.51953-0.67578-0.11328-1.4414-0.23828-2.2188-0.26172-2.2734-0.058593-4.5938 0.85938-6.2109 2.457-1.6172 1.5977-2.5625 3.9062-2.5312 6.1797 0.007812 0.64453 0.089843 1.2852 0.17187 1.9062 0.125 0.99219 0.17578 2 0.066407 2.9961-0.10547 0.98438-0.46484 1.8125-0.76562 2.7383-0.23828 0.73047-0.42188 1.4766-0.55469 2.2305-0.24609 1.4023-0.30859 2.8359-0.19531 4.2539 0.058594 0.71094 0.16016 1.4141 0.30859 2.1094 0.074218 0.34766 0.16016 0.69141 0.25391 1.0352 0.070312 0.25 0.33984 0.67188 0.046875 0.89063-0.24219 0.18359-0.63281-0.11719-0.875-0.18359-0.39844-0.10547-0.8125-0.16797-1.2266-0.17969-0.42188-0.011718-0.83203 0.066406-1.25 0.09375-0.45703 0.027344-0.89844-0.039062-1.3516-0.078125-0.46875-0.039062-0.94141-0.011719-1.3984 0.078125-0.46094 0.089844-0.91016 0.23828-1.3359 0.44141-0.16406 0.078126-0.46484 0.37109-0.66016 0.25781-0.066406-0.035156-0.097656-0.11719-0.10156-0.19141-0.011719-0.30078 0.17969-0.58594 0.28906-0.84766 1.3555-3.1797 1.3242-6.8555-0.039062-10.02-0.28125-1.0156-0.30078-1.3281-0.37109-1.8516-0.023437-0.16016-0.019531-0.42578-0.019531-0.48047-0.042969-1.2578 0.003906-2.1953 0.14453-3.2969 0.078125-0.62109 0.16016-1.2656 0.17188-1.9062 0.03125-2.2734-0.91406-4.582-2.5312-6.1797-1.6172-1.5977-3.9492-2.5195-6.2109-2.457-0.77734 0.019532-1.543 0.14844-2.2188 0.26172-0.62109 0.10156-1.3203 0.21875-1.9766 0.51953-0.82812 0.38281-1.5234 1.0352-1.9453 1.8438-0.11719 0.22266-0.03125 0.49609 0.19141 0.61328 0.22266 0.11719 0.49609 0.03125 0.61328-0.19141 0.33203-0.63281 0.87109-1.1445 1.5234-1.4414 0.54297-0.25 1.1836-0.35547 1.7461-0.44922 0.64453-0.10547 1.3789-0.23047 2.0938-0.24609 2.0352-0.0625 4.1055 0.76563 5.5469 2.1953 1.4453 1.4258 2.2891 3.4922 2.2617 5.5234-0.007812 0.59375-0.085937 1.2109-0.16406 1.8047-0.054688 0.43359-0.070313 0.86719-0.085938 1.3047-0.015625 0.52734 0.042969 1.0781-0.03125 1.5977-0.003906 0.035156-0.011719 0.074218-0.03125 0.10547-0.027343 0.039063-0.082031 0.054688-0.13281 0.046876-0.12109-0.027344-0.11328-0.14453-0.13672-0.24219-0.35938-1.6992-0.48047-3.4297-1.457-4.9336-1.2305-1.8906-2.9297-2.8008-5.0469-2.7031-0.38281 0.019531-0.73828 0.11328-1.0859 0.20312-0.125 0.03125-0.25 0.066406-0.375 0.09375-0.89453 0.20312-1.8086 0.28516-2.7227 0.25391-0.24609-0.0625-0.48828-0.12109-0.71094-0.17187-0.24609-0.054688-0.48828 0.097656-0.54687 0.33984-0.007813 0.039063-0.003907 0.078125-0.003907 0.11719-0.007812 0.023437-0.019531 0.039062-0.019531 0.0625-0.027344 0.25 0.15234 0.47266 0.40234 0.50391 0.23438 0.027344 0.46875 0.035156 0.70312 0.050781 0.98828 0.26172 1.8398 0.59375 2.4023 1.2578 0.15625 0.18359 0.29688 0.57422 0.42188 0.92188 0.11719 0.33203 0.23047 0.64453 0.38281 0.89453 0.14062 0.23047 0.30078 0.42188 0.46484 0.59766 0.59375 0.71484 1.4805 1.1836 2.4922 1.1797 0.28516 0.054687 0.57422 0.10547 0.86719 0.14844 0.32812 0.050782 0.67188 0.10547 1.0195 0.17578 0.41797 0.082031 0.86719 0.30859 1.2773 0.67969 0.93359 0.84375 1.2539 1.6914 1.3945 1.8672 0.1875 0.23047 0.34766 0.66797 0.48047 0.91797 1.6445 3.1094 1.8047 6.9023 0.42188 10.141-0.097657 0.22656-0.20312 0.45312-0.30469 0.67969-0.54688 1.1875-1.2266 2.7305-0.91016 4.0703 0.10547 0.44922 0.29688 0.84766 0.37891 1.3086 0.082031 0.45703 0.23438 0.89453 0.46094 1.2969 0.44922 0.80469 1.1602 1.4727 2.0156 1.8242 0.27734 0.11328 0.5625 0.19531 0.85156 0.27734 0.24609 0.070312 0.49609 0.14062 0.73438 0.23437 0.32422 0.13281 0.83594 0.36719 0.66406 0.80859-0.12109 0.31641-0.44922 0.28125-0.72656 0.33984-0.35938 0.078125-0.72266 0.14453-1.0898 0.1875-0.65625 0.082031-1.3242 0.10938-1.9883 0.046875-1.1133-0.10156-2.2109-0.46875-3.082-1.1914-1.4727-1.2188-2.2344-3.3711-2.0898-5.8984 0.082031-1.4023 0.21875-3.7539 0.67578-5.1367 0.11719-0.35547 0.24219-0.71484 0.37109-1.0781 0.39062-1.1172 0.78125-2.2422 0.98438-3.4102 0.10156-0.57422 0.15625-1.1641 0.13281-1.7461-0.011719-0.29688-0.042969-0.59375-0.10156-0.88672-0.050781-0.26562-0.10547-0.54688 0.17578-0.68359 0.32031-0.15625 0.75-0.1875 1.0898-0.3125 0.23438-0.085937 0.35938-0.34766 0.27344-0.58203-0.085938-0.23828-0.34766-0.35938-0.58203-0.27344-2.0312 0.73047-4.375 0.54688-6.2695-0.48828s-3.3125-2.9062-3.7969-5.0117c-0.054687-0.24609-0.30078-0.39844-0.54688-0.33984-0.24609 0.054688-0.39844 0.30078-0.33984 0.54688 0.53906 2.3516 2.1289 4.4453 4.2461 5.6055 0.73047 0.39844 1.5234 0.68359 2.3398 0.85547 0.40625 0.085937 0.82422 0.14062 1.2383 0.16406 0.31641 0.019531 0.78516-0.10938 1.0547 0.085937 0.29688 0.21875 0.29688 0.95703 0.31641 1.2891 0.027344 0.53516-0.023438 1.0742-0.11719 1.6016-0.19922 1.1289-0.58594 2.2109-0.96484 3.2891-0.12891 0.36719-0.25781 0.73438-0.375 1.0938-0.49219 1.4961-0.62891 3.8242-0.71875 5.3672-0.16406 2.8203 0.71875 5.2422 2.4141 6.6523 0.35938 0.29688 1.0938 0.82812 1.0938 0.82812 1.2773 1.2266 2.8711 2.75 4.8711 3.2656 0.69922 0.17969 1.6016 0.28516 2.5117 0.28516 0.99609 0 2.0039-0.12891 2.7461-0.42578 1.3164-0.52734 2.8281-1.832 3.9062-2.8359 0.80469-0.23828 1.5273-0.59766 2.1445-1.1094 1.7031-1.4102 2.5898-3.8359 2.4258-6.6602-0.089844-1.5391-0.22656-3.8711-0.71875-5.3672-0.11719-0.35937-0.24609-0.72266-0.375-1.0938-0.36328-1.0312-0.73047-2.0742-0.9375-3.1523-0.097656-0.51562-0.16016-1.0391-0.14844-1.5625 0.007813-0.41016 0-1.0352 0.28516-1.3711 0.20312-0.20312 0.73438-0.14453 0.99609-0.16016zm-23.77-9.3594c-0.25781-0.29688-0.55859-0.53906-0.88281-0.73828 0.30469-0.042968 0.60938-0.097656 0.91016-0.16797 0.13672-0.03125 0.26953-0.066406 0.40625-0.10156 0.042969-0.011719 0.085937-0.019531 0.12891-0.03125-0.25 0.30859-0.44141 0.66016-0.5625 1.0391zm3.1484 3.293c-0.76562-0.15625-1.4062-0.38672-1.8945-0.90234-0.30469-0.39453-0.49219-0.88281-0.49219-1.4141 0-0.4375 0.125-0.87109 0.35938-1.2422 0.19141-0.30469 0.61328-0.82422 1.0039-0.85156 0.10938-0.007812 0.21875 0.019532 0.32422 0.050782 1.0703 0.33594 0.79297 2.0352-0.30859 2.0352-0.22266 0-0.42578-0.007813-0.23438 0.27344 0.085938 0.12891 0.21875 0.23828 0.34375 0.32422 0.25 0.17188 0.54688 0.26172 0.85156 0.26172 0.46094 0 0.90234-0.21484 1.1914-0.57031 0.14453-0.17969 0.25-0.39453 0.30078-0.62109 0.035157-0.17187-0.027343-0.49609 0.27344-0.40234 0.74609 0.23828 0.52734 1.3906 0.24609 1.8828-0.33594 0.58203-1.2266 1.3281-1.9648 1.1758zm3.3047 0.87109c-0.16016 0.03125-0.375-0.18359-0.50781-0.25-0.24609-0.125-0.51172-0.22266-0.78516-0.27344-0.070313-0.015625-0.13672-0.023438-0.20703-0.035157 0.14062 0.023438 0.53516-0.47656 0.61719-0.57812 0.14453-0.17969 0.41016-0.90234 0.66797-0.50781 0.14453 0.22656 0.18359 0.625 0.24219 0.88672 0.039062 0.17578 0.25781 0.70312-0.027344 0.75781zm11.215 21.676c-0.015625-0.11328-0.070312-0.21875-0.16797-0.29297-0.19531-0.15625-0.48438-0.12109-0.64062 0.074219-0.16406 0.20703-0.46875 0.30859-0.79297 0.27344-0.32422-0.039063-0.59375-0.21484-0.70313-0.45312-0.10937-0.24219-0.066406-0.55859 0.11719-0.82812s0.47266-0.4375 0.72656-0.42188c0.19141 0.007812 0.39453 0.078125 0.61328 0.15234 0.21875 0.074218 0.4375 0.14844 0.66406 0.18359 0.36328 0.054687 0.72656 0 1.0625-0.12891-0.16016 0.54688-0.46875 1.0469-0.87891 1.4414zm-6.4844 0.054687c-0.32031 0.039063-0.62891-0.066406-0.79297-0.27344-0.15625-0.19531-0.44141-0.23047-0.64062-0.074219-0.097656 0.074219-0.15234 0.18359-0.16797 0.29297-0.41016-0.39453-0.71875-0.89453-0.88281-1.4414 0.33594 0.13281 0.69922 0.1875 1.0625 0.12891 0.23828-0.035157 0.45312-0.10938 0.66406-0.18359 0.21875-0.074219 0.42578-0.14453 0.61328-0.15234 0.28516-0.015625 0.54297 0.14844 0.72656 0.42188 0.18359 0.26953 0.22656 0.58984 0.11719 0.82812-0.10547 0.24219-0.375 0.41406-0.69922 0.45312zm0.82812 1.0547c-0.42188-0.17187-0.03125-0.34766 0.19922-0.51953 0.21484-0.16016 0.39062-0.36719 0.50391-0.60938 0.24609-0.53516 0.17188-1.1758-0.19141-1.7148-0.36328-0.53906-0.93359-0.83594-1.5195-0.82031-0.32031 0.015625-0.61328 0.11328-0.86719 0.20312-0.16797 0.058594-0.33594 0.11719-0.50781 0.14453-0.60938 0.09375-1.2617-0.34766-1.4023-0.94531-0.27734-1.1758 1.2344-2.2422 2.1445-2.6484 0.38672-0.17188 0.79688-0.28906 1.2148-0.34766s0.84375-0.054688 1.2578 0.015625c0.47656 0.078125 0.80469 0.18359 1.2812 0.058594 0.43359-0.11328 0.89453-0.13672 1.3359-0.097657 1.0469 0.09375 2.1797 0.59766 2.9062 1.3867 0.070312 0.078125 0.13672 0.15625 0.19922 0.23828 0.28516 0.375 0.57031 0.91406 0.45703 1.3984-0.14062 0.59766-0.78906 1.0391-1.4023 0.94531-0.17188-0.027343-0.33984-0.085937-0.50781-0.14453-0.25781-0.089843-0.54687-0.1875-0.86719-0.20312-0.58594-0.015625-1.1562 0.28125-1.5195 0.82031-0.36328 0.53906-0.43359 1.1797-0.19141 1.7148 0.11328 0.25 0.29687 0.46484 0.51953 0.625 0.32031 0.23047 0.57812 0.33984 0.070312 0.54688-0.33203 0.13672-0.64844 0.32422-0.90625 0.57422-0.21875 0.21094-0.40234 0.51953-0.76172 0.41797-0.17578-0.050781-0.21094-0.17188-0.31641-0.30469-0.29297-0.35938-0.71094-0.5625-1.1289-0.73438zm3.8594 4.8906c-1.1953 0.47656-3.3945 0.4375-4.6953 0.10156-1.2305-0.31641-2.293-1.0781-3.2539-1.918 0.46875 0.082031 0.95312 0.13672 1.4688 0.13672 0.92578 0 1.9258-0.13281 2.9844-0.39844 0.40625-0.10156 0.75781-0.42969 1.1875-0.49609 0.47266-0.074219 0.85938 0.37891 1.3086 0.49609 1.0664 0.26953 2.0664 0.40234 2.9961 0.40234 0.19531 0 0.37891-0.027344 0.56641-0.039062-0.77344 0.65625-1.7422 1.3867-2.5625 1.7148z"/>
 <path d="m59.566 18.434c1.2578 0.36328 2.457-0.45703 3.3594-1.2109 2.8789-2.4141 5.5742-5.0898 8.0156-7.9453l0.14453-0.16797c0.53125-0.62891 1.0703-1.2617 1.6797-1.8164 0.30469-0.27734 0.625-0.53516 0.97656-0.75781 0.16016-0.10547 0.34375-0.23438 0.52734-0.29688 0.097657-0.03125 0.23828-0.042969 0.27734 0.070313 0.050781 0.14453-0.16016 0.25391-0.24219 0.32812-2.6211 2.4219-4.2188 5.6523-5.625 8.7578-1.5742 3.4688-3.0391 7.0391-4.3555 10.617-0.085938 0.23438 0.035156 0.49609 0.26953 0.58594 0.050781 0.019532 0.10547 0.027344 0.15625 0.027344 0.18359 0 0.35938-0.11328 0.42578-0.29688 1.3086-3.5547 2.7656-7.1055 4.3281-10.555 1.3711-3.0195 2.918-6.1562 5.4141-8.4648 0.32812-0.30469 0.88281-0.76953 1.3711-0.5625 0.082032 0.035156 0.15625 0.089844 0.22656 0.14062 0.17188 0.125 0.23828 0.23047 0.31641 0.41797 2.9453 7.1055 3.2734 13.383 1.0312 19.766-0.57812 1.6484-0.99219 3.3633-1.2266 5.1016-0.035157 0.25 0.14062 0.47656 0.39062 0.51172 0.019531 0.003906 0.039062 0.003906 0.0625 0.003906 0.22266 0 0.41797-0.16406 0.44922-0.39453 0.22656-1.6758 0.625-3.3281 1.1836-4.9219 2.3164-6.6055 1.9844-13.094-1.0508-20.414-0.125-0.30078-0.27734-0.59766-0.45703-0.87891-0.007813-0.007813-0.011719-0.019531-0.015625-0.027344-0.27734-0.42578-0.62891-0.78906-1.1406-0.96094-0.44922-0.14453-0.95703-0.12109-1.5547 0.070312-1.7461 0.56641-2.9531 1.9844-4.1172 3.3516l-0.14453 0.16797c-2.4062 2.8203-5.0664 5.457-7.9062 7.8398-0.77344 0.64844-1.6797 1.2812-2.5234 1.0352-0.24609-0.070313-0.49219 0.066406-0.5625 0.30859-0.0625 0.24609 0.074219 0.5 0.31641 0.57031z"/>
 <path d="m21.621 35.312 0.51172 0.35156c0.078126 0.050782 0.16797 0.078126 0.25391 0.078126 0.14453 0 0.28906-0.070313 0.37891-0.19922 0.14062-0.20703 0.085937-0.49219-0.12109-0.63281 0 0-0.5-0.33984-0.50781-0.34766-0.22266-0.15234-0.18359-0.37109 0.046875-0.43359 0.32031-0.09375 0.69922-0.082031 1.0312-0.14844 0.15625-0.03125 0.30859-0.066407 0.46484-0.10156 0.44141-0.10156 0.85547-0.21094 1.2695-0.19531 0.42969 0.003906 0.96875 0.15234 1.1992 0.55469 0.125 0.21875 0.40234 0.29297 0.62109 0.16797s0.29297-0.40234 0.16797-0.62109c-0.35547-0.61719-1.1133-1.0078-1.9844-1.0117-0.30078-0.003907-0.84766 0.22656-1.0586-0.097657-0.18359-0.28125-0.0625-0.79297-0.0625-1.1133 0.003907-0.42188-0.007812-0.84375-0.023437-1.2617-0.035156-0.82422-0.10938-1.6445-0.22266-2.4648-0.40625-2.9609-1.3086-5.8477-2.6719-8.5078-0.19531-0.38672-0.15234-0.48438-0.14844-0.48828 0.027344-0.03125 0.21875-0.042969 0.32031-0.050782 0.19531-0.011718 0.41406-0.023437 0.63672-0.11328 0.67188-0.28125 0.85938-1.0977 0.69531-1.7227-0.085938-0.32422-0.23438-0.60156-0.38281-0.87109-0.078125-0.14453-0.15625-0.28906-0.22266-0.4375-0.29688-0.69141-0.25-1.5234-0.15625-2.3164 0.13281-1.1094 0.34766-2.2109 0.64062-3.2891 0.27344-1.0078 0.55469-2.2031 1.1289-3.082 0.035157-0.042969 0.0625-0.085937 0.10547-0.12109 0.074219-0.0625 0.17188-0.082032 0.26562-0.10156 0.54688-0.10547 0.97266 0.21875 1.3555 0.57422 2.5 2.3086 4.0469 5.4453 5.4141 8.4648 1.5664 3.4531 3.0234 7.0039 4.3281 10.555 0.066407 0.18359 0.24219 0.29688 0.42578 0.29688 0.050782 0 0.10547-0.007812 0.15625-0.027344 0.23438-0.085937 0.35547-0.34766 0.26953-0.58594-1.3125-3.5703-2.7773-7.1445-4.3555-10.617-1.4062-3.1016-3.0039-6.3359-5.625-8.7578-0.12109-0.11328-0.38281-0.23828-0.29297-0.44141 0.13672-0.30859 1.6758 0.94531 1.8516 1.1055 0.60156 0.55469 1.1328 1.1797 1.6602 1.8008l0.14453 0.16797c2.4375 2.8555 5.1367 5.5312 8.0156 7.9453 0.90234 0.75781 2.1016 1.5781 3.3594 1.2109 0.24219-0.070312 0.37891-0.32031 0.30859-0.5625-0.070312-0.24219-0.32031-0.38281-0.5625-0.30859-0.84375 0.24609-1.7461-0.38672-2.5234-1.0352-2.8398-2.3828-5.5-5.0195-7.9062-7.8398l-0.14062-0.16797c-1.1641-1.3672-2.3672-2.7812-4.1172-3.3516-0.60156-0.19531-1.1094-0.21875-1.5547-0.070312-0.51172 0.16797-0.86328 0.53516-1.1406 0.96094-0.007813 0.007813-0.011719 0.019531-0.015626 0.027344-0.17969 0.28125-0.33203 0.57812-0.45703 0.87891-0.82812 2.0039-1.3828 4.1133-1.6367 6.2656-0.10937 0.91797-0.15625 1.8906 0.22266 2.7773 0.074219 0.17578 0.16797 0.34766 0.26172 0.51562 0.125 0.23047 0.24219 0.44922 0.30078 0.66797 0.066406 0.24609 0.007812 0.57812-0.16797 0.65234-0.074219 0.03125-0.20703 0.039062-0.33594 0.046874-0.28516 0.015626-0.67578 0.039063-0.95703 0.35938-0.46875 0.53516-0.097656 1.2617 0.023438 1.5 1.0469 2.043 1.8164 4.2305 2.2812 6.4766 0.30469 1.4688 0.48047 2.9609 0.52734 4.457 0.011719 0.375 0.015626 0.75 0.011719 1.1289-0.003906 0.29687 0.054688 0.69922-0.0625 0.97656-0.20312 0.46875-0.82031 0.44922-1.2461 0.46484-0.65625 0.023437-1.3125-0.03125-1.957-0.15625-0.46875-0.19922-0.96094-0.35156-1.4805-0.42578-0.23438-0.03125-0.44531 0.11328-0.50391 0.33594-0.058593 0.22266 0.0625 0.45312 0.27734 0.53906 0.46094 0.17578 0.93359 0.31641 1.4219 0.41797 0.78125 0.34766 1.5234 0.85938 2.2461 1.3555z"/>
 <path d="m23.434 40.531c0.25391 0.039062 0.48047-0.13281 0.51953-0.37891s-0.13281-0.48047-0.37891-0.51953c-1.0078-0.15625-2.0352-0.17187-3.0508-0.046874-0.34375 0.042968-0.73047-0.046876-0.46875-0.46484 0.14844-0.24219 0.41016-0.40234 0.62109-0.58594 0.3125-0.26953 0.65234-0.50781 1.0078-0.71484 0.70312-0.41016 1.4805-0.69531 2.2852-0.82422 0.24609-0.039063 0.41797-0.27344 0.37891-0.51953-0.039062-0.24609-0.27734-0.41797-0.51953-0.37891-2.4062 0.38672-4.5625 1.9844-5.6289 4.1758-0.078125 0.16406-0.054688 0.35937 0.066406 0.49609 0.089844 0.10156 0.21484 0.15625 0.34375 0.15625 0.046875 0 0.09375-0.007812 0.14062-0.023437 1.5-0.48438 3.1211-0.61328 4.6836-0.37109z"/>
 <path d="m55.574 83.66c-0.92578 1.168-2.0078 2.2812-3.0547 3.3594-0.31641 0.32422-0.63281 0.64844-0.94141 0.97266-0.40234 0.42187-0.79297 0.85156-1.1406 1.3164-0.23828 0.32422-0.4375 0.94141-0.77344 1.1602-0.58984 0.39453-0.70312-0.90625-0.80859-1.2227-0.17578-0.52344-0.375-1.0391-0.59766-1.543-0.44141-1.0156-0.97266-1.9922-1.5781-2.9219-0.66406-1.0156-1.4297-1.9688-2.168-2.8906-0.83594-1.0469-1.668-2.0859-2.5039-3.1289-0.15625-0.19531-0.44141-0.23047-0.64062-0.070313-0.19531 0.15625-0.22656 0.44141-0.070313 0.64062 0.49609 0.62109 0.019531 1.2422-0.23828 1.8438-0.14062 0.32422-0.22266 0.55859-0.57422 0.3125-0.44922-0.3125-0.67578-0.89453-1.0039-1.3164-0.25-0.32422-0.5-0.64844-0.73047-0.97266-0.63672-0.90234-1.1328-1.8984-1.4688-2.9492-0.16797-0.51953-0.29297-1.0469-0.38281-1.5859-0.0625-0.37109 0.027343-1.1172-0.39453-1.2773-0.18359-0.070313-0.50781-0.10938-0.69531-0.046875-0.30469 0.097656-0.64844 0.38672-0.97266 0.19531-0.23438-0.14062-0.33984-0.48438-0.51172-0.68359-0.26172-0.30469-0.54297-0.59375-0.82422-0.87891-0.24219-0.24609-0.48047-0.48828-0.69922-0.73438-1.2227-1.3906-1.8242-3.3203-1.6055-5.1602 0.027344-0.25-0.14844-0.47656-0.39844-0.50391-0.24609-0.027344-0.47656 0.14844-0.50391 0.39844-0.24609 2.0938 0.43359 4.2852 1.8242 5.8672 0.22656 0.25781 0.48047 0.51562 0.73437 0.77344 0.77734 0.78906 1.5156 1.5391 1.6016 2.4219-0.015625 0.13672-0.011719 0.27344 0.003906 0.41406 0.027344 0.22656 0.22266 0.39844 0.46094 0.39844 0.23438-0.003906 0.42578-0.18359 0.44531-0.41797 0.011719-0.125 0.011719-0.24609 0.007813-0.36719-0.011719-0.19531 0.23047-0.80859 0.50391-0.56641 0.25781 0.23047 0.25391 0.92188 0.33203 1.2422 0.11719 0.48828 0.26953 0.96484 0.44531 1.4336 0.34766 0.90234 0.80078 1.7656 1.3594 2.5547 0.23828 0.33594 0.49609 0.67188 0.75391 1.0039 0.80078 1.0312 1.5625 2.0156 1.7461 3.1055 0 0.24609 0.011719 0.49219 0.039062 0.73828 0.027344 0.23047 0.22266 0.40234 0.46484 0.40234 0.23438-0.007812 0.42969-0.19531 0.44141-0.42969 0.015625-0.26953 0-0.53125-0.035156-0.78906-0.085937-0.55859 0.14062-1.2812 0.32031-1.8047 0.09375-0.26953 0.19531-0.58594 0.34766-0.82812 0.39062-0.61328 0.75391 0.14062 1.0117 0.46094 0.23047 0.28906 0.46484 0.58203 0.69531 0.87109 0.72656 0.90625 1.4766 1.8438 2.1172 2.8242 1.8164 2.7695 2.8633 5.9766 3.0312 9.2852 0.007813 0.18359 0.13281 0.34766 0.30469 0.40625 0.0625 0.019532 0.11328 0.027344 0.16406 0.027344 0.12891 0 0.25391-0.054688 0.34375-0.15625 0.54297-0.625 0.52344-1.4375 0.51172-2.1523-0.003906-0.25-0.011719-0.49609 0.007813-0.73828 0.10547-1.2852 1.0703-2.3945 1.9648-3.3359 0.30859-0.32031 0.62109-0.64453 0.93359-0.96875 1.0625-1.0938 2.1602-2.2266 3.1133-3.4297 0.15625-0.19531 0.12109-0.48438-0.074218-0.64062-0.19531-0.14844-0.48047-0.11719-0.64062 0.082031z"/>
 <path d="m29.652 62.398c1.0312-0.23047 2.0977 0.16406 3.2852 0.66406 0.9375 0.39453 2 0.83984 2.8438 1.5234 0.875 0.70703 1.4062 1.6211 1.4609 2.5078 0.015624 0.24219 0.21484 0.42578 0.45312 0.42578h0.027344c0.25-0.015625 0.44141-0.23047 0.42578-0.48047-0.070313-1.1406-0.72656-2.2891-1.7969-3.1562-0.94141-0.76172-2.0703-1.2383-3.0625-1.6523-0.64453-0.26953-1.2773-0.51953-1.918-0.66797 1.1484-0.50391 2.2812-0.80078 3.3906-0.5625 0.24219 0.054688 0.48828-0.10547 0.53906-0.35156 0.054688-0.24609-0.10547-0.48828-0.35156-0.53906-1.9258-0.41406-3.7539 0.44922-5.6133 1.4492-0.19922 0.10547-0.28906 0.34766-0.21094 0.55859 0.082031 0.20703 0.30469 0.32812 0.52734 0.28125z"/>
 <path d="m38.453 60.031c-0.52344-1.2461-1.7188-1.7969-2.8789-2.3242-0.74609-0.34375-1.5156-0.69531-2.0508-1.2266-0.9375-0.92969-1.125-2.5312-0.42578-3.6523 0.13281-0.21484 0.070313-0.49219-0.14453-0.62891-0.21484-0.13281-0.49219-0.070313-0.62891 0.14453-0.91797 1.4648-0.67188 3.5664 0.55859 4.7812 0.65234 0.64453 1.4961 1.0312 2.3125 1.4062 1.0469 0.48047 2.0312 0.93359 2.418 1.8516 0.074219 0.17578 0.24219 0.27734 0.41797 0.27734 0.058594 0 0.11719-0.011718 0.17578-0.035156 0.23438-0.09375 0.34375-0.35938 0.24609-0.59375z"/>
 <path d="m34.082 32.836c-0.25 0.019531-0.4375 0.23828-0.41797 0.48828 0.019532 0.25 0.24609 0.4375 0.48828 0.41797 1.3203-0.10547 2.6875-0.21875 3.9883 0.027343 1.3828 0.26172 2.5273 0.94922 3.1367 1.8828 0.085937 0.13281 0.23047 0.20703 0.38281 0.20703 0.070313 0 0.14453-0.015625 0.21094-0.050781 0.20703-0.10938 0.30078-0.35547 0.21094-0.57422-0.64453-1.5977-0.40625-3.5312 0.60156-4.9258 0.14844-0.20312 0.10156-0.48828-0.10156-0.63672s-0.48828-0.10156-0.63672 0.10156c-0.66406 0.91797-1.043 2.0273-1.1172 3.1562-0.023437 0.32812 0.10156 0.80469-0.35547 0.71484-0.26172-0.050781-0.48047-0.23438-0.72266-0.33594-0.46094-0.19531-0.94531-0.33984-1.4375-0.43359-1.4219-0.26562-2.8516-0.14844-4.2305-0.039062z"/>
 <path d="m38.977 31.465c0.078126 0.125 0.21094 0.20312 0.35938 0.21484h0.027343c0.13672 0 0.26562-0.0625 0.35156-0.16797 0.27344-0.33984 0.35156-0.82031 0.19531-1.2266-0.089844-0.23438-0.35156-0.35547-0.58594-0.26172-0.11328 0.042968-0.20312 0.12891-0.25 0.23047-0.37891-0.28125-0.82422-0.46875-1.3008-0.52734-0.25-0.027343-0.47656 0.14453-0.50781 0.39453s0.14453 0.47656 0.39453 0.50781c0.53125 0.0625 1.0352 0.38672 1.3164 0.83594z"/>
 <path d="m82.32 33.004c-0.058593-0.22266-0.27344-0.37109-0.50391-0.33594-0.51953 0.074219-1.0117 0.22266-1.4766 0.42578-1.1094 0.22266-2.2695 0.22266-3.3711-0.003906-0.14844-0.03125-0.29688-0.0625-0.44531-0.097656-0.47266-0.10938-0.97266-0.19922-1.4805-0.21875-0.86719 0.007812-1.6289 0.39453-1.9844 1.0117-0.125 0.21875-0.050782 0.49609 0.16797 0.62109s0.49609 0.050781 0.62109-0.16797c0.23438-0.40625 0.77344-0.55469 1.1992-0.55469 0.39062-0.011719 0.82812 0.09375 1.2695 0.19531 0.15625 0.035156 0.3125 0.070313 0.46875 0.10156 0.20312 0.039062 1.375 0.082031 1.4102 0.27734 0.023438 0.13281-0.24609 0.25391-0.32812 0.30859l-0.50781 0.34766c-0.20703 0.14063-0.26172 0.42188-0.12109 0.63281 0.089844 0.13281 0.23047 0.19922 0.37891 0.19922 0.085937 0 0.17578-0.023438 0.25391-0.078125l0.51562-0.35156c0.72266-0.49609 1.4609-1.0078 2.2422-1.3516 0.48438-0.10156 0.96094-0.24219 1.4219-0.41797 0.20703-0.089844 0.32812-0.32031 0.26953-0.54297z"/>
 <path d="m76.172 36.098c-0.24609-0.039062-0.48047 0.12891-0.51953 0.37891-0.039063 0.24609 0.12891 0.48047 0.37891 0.51953 1.0781 0.17188 2.1055 0.625 2.9766 1.2852 0.22266 0.16797 0.43359 0.35156 0.63672 0.54688 0.16016 0.15625 0.41406 0.34766 0.53516 0.52734 0.32422 0.48438-0.55078 0.25-0.73828 0.22656-0.33203-0.039062-0.66797-0.066406-1.0039-0.074219-0.67188-0.019531-1.3438 0.023438-2.0078 0.125-0.24609 0.039063-0.41797 0.26953-0.37891 0.51953 0.039063 0.24609 0.27344 0.41797 0.51953 0.37891 1.5586-0.24219 3.1836-0.11328 4.6875 0.375 0.046876 0.015625 0.09375 0.023438 0.14063 0.023438 0.12891 0 0.25391-0.054688 0.34375-0.15625 0.11719-0.13672 0.14453-0.33594 0.066406-0.49609-1.0742-2.1953-3.2305-3.793-5.6367-4.1797z"/>
 <path d="m80.633 50.441c-0.15234-0.33203-0.24219-0.73438-0.35937-1.0508-0.10156-0.28125-0.3125-0.59375-0.45703-0.86719-0.16406-0.3125-0.34766-0.60938-0.54297-0.90234-0.37891-0.57031-0.80469-1.1094-1.2266-1.6484-0.19922-0.25391-0.40234-0.51172-0.59766-0.76953-0.86719-1.1484-1.8516-2.6758-1.7617-4.3203 0.015625-0.25-0.17969-0.46484-0.42969-0.48047-0.25391-0.027344-0.46484 0.17969-0.48047 0.42969-0.10547 1.9414 0.98438 3.6484 1.9414 4.918 0.19922 0.26172 0.40234 0.51953 0.60547 0.78125 0.41406 0.52734 0.82812 1.0547 1.2031 1.6133 0.20312 0.30469 0.98438 1.2852 0.67578 1.6406-0.19531 0.22656-0.64453 0.039063-0.89062-0.011718-0.32031-0.066407-0.63672-0.12891-0.95703-0.19531-0.38672-0.078125-0.77344-0.15625-1.1602-0.23438-0.63281-0.12891-1.2734-0.29297-1.5352-0.73828-0.12891-0.21484-0.40625-0.28516-0.62109-0.16016-0.21484 0.12891-0.28516 0.40625-0.16016 0.62109 0.45312 0.76562 1.3398 1.0039 2.1367 1.1641 0.57422 0.11719 1.1445 0.23438 1.7188 0.35156 0.37891 0.078125 0.77734 0.125 1.1445 0.23438 0.57031 0.16797 1.0156 0.61719 1.3398 1.0938 0.085938 0.125 0.22656 0.19922 0.37891 0.19922h0.027344c0.16016-0.011719 0.30469-0.10547 0.37891-0.24609 0.22656-0.44922 0.058594-0.78906-0.20703-1.1484-0.0625-0.078125-0.11719-0.17188-0.16406-0.27344z"/>
 <path d="m73.723 50.367c-0.18359 0.17187-0.19531 0.46094-0.023437 0.64453 2.3125 2.4805 3.5586 5.8477 3.4219 9.2344-0.011719 0.32031-0.070313 0.87891-0.49609 0.48828-0.17969-0.16406-0.29688-0.56641-0.44531-0.77344-0.35156-0.49219-0.79688-0.91406-1.3164-1.2266l-0.26562-0.15625c-0.67578-0.39062-1.1484-0.69922-1.1016-1.0938 0.027344-0.25-0.14844-0.47656-0.39844-0.50391-0.25-0.03125-0.47656 0.14844-0.50391 0.39844-0.074219 0.63281-0.085938 1.3359 0.03125 1.9648 0.011719 0.0625 0.023438 0.125 0.035156 0.1875 0.28125 1.5508 0.53125 3.1172 0.52344 4.6953-0.003906 0.72266-0.027344 1.5078-0.22656 2.207-0.054687 0.1875-0.20312 0.44922-0.42969 0.3125-0.15234-0.089844-0.18359-0.35938-0.25391-0.50781-0.125-0.26953-0.27344-0.53125-0.4375-0.77734-0.31641-0.47266-0.69922-0.90234-1.1406-1.2617-0.19531-0.16016-0.48047-0.12891-0.64062 0.066406-0.16016 0.19531-0.12891 0.48047 0.066406 0.64062 1.2031 0.98047 1.8906 2.5508 1.7969 4.0977-0.011719 0.20703 0.11328 0.39453 0.30859 0.46094 0.046876 0.015625 0.097657 0.023437 0.14453 0.023437 0.14844 0 0.29297-0.074219 0.37891-0.20312 1.5586-2.3594 1.4961-5.3125 1.1211-8.0039-0.050782-0.35938-0.10547-0.71484-0.16406-1.0703-0.035156-0.21484-0.24219-0.76563-0.054687-0.94141 0.058594-0.054687 0.14844-0.0625 0.22656-0.042969 0.17969 0.042969 0.36328 0.19141 0.51953 0.28516 1.3203 0.79688 2.0352 2.4688 1.6992 3.9766-0.046875 0.20312 0.054688 0.41406 0.24219 0.50781 0.0625 0.03125 0.13281 0.046875 0.19922 0.046875 0.13281 0 0.26172-0.058594 0.34766-0.16406 0.70703-0.84766 1.082-2.0234 1.1445-3.5977 0.14844-3.6289-1.1875-7.2344-3.6641-9.8906-0.17578-0.1875-0.46094-0.19531-0.64453-0.023437z"/>
 <path d="m24.055 50.238c0.79687-0.16016 1.6836-0.39844 2.1367-1.1641 0.12891-0.21484 0.058594-0.49609-0.16016-0.62109-0.21875-0.12891-0.49609-0.054687-0.62109 0.16016-0.26172 0.44531-0.90234 0.60938-1.5352 0.73828-0.38672 0.078126-0.77344 0.15625-1.1602 0.23438-0.32031 0.066406-0.63672 0.12891-0.95703 0.19531-0.24219 0.050781-0.69141 0.23828-0.89062 0.011719-0.30859-0.35547 0.47266-1.3398 0.67578-1.6406 0.37109-0.55859 0.78516-1.0859 1.2031-1.6133 0.20312-0.26172 0.40625-0.51953 0.60547-0.78125 0.96094-1.2695 2.0508-2.9766 1.9414-4.918-0.011719-0.25-0.22656-0.45312-0.48047-0.42969-0.25 0.015625-0.44141 0.22656-0.42969 0.48047 0.089844 1.6445-0.89453 3.1758-1.7617 4.3203-0.19531 0.25781-0.39453 0.51172-0.59766 0.76953-0.42188 0.53906-0.84766 1.0781-1.2266 1.6484-0.19531 0.29297-0.37891 0.59375-0.54297 0.90234-0.14453 0.27344-0.35547 0.58594-0.45703 0.86719-0.11719 0.32031-0.20703 0.72266-0.35938 1.0508-0.046875 0.10156-0.10156 0.19531-0.16016 0.27734-0.26562 0.35938-0.43359 0.69922-0.20703 1.1484 0.074219 0.14453 0.21875 0.23828 0.37891 0.24609h0.027343c0.15234 0 0.29297-0.074219 0.37891-0.19922 0.32031-0.47656 0.76953-0.92969 1.3398-1.0938 0.36719-0.10938 0.76953-0.15625 1.1445-0.23438 0.56641-0.125 1.1406-0.23828 1.7148-0.35547z"/>
 <path d="m29.383 64.199c-0.44141 0.35938-0.82422 0.78906-1.1406 1.2617-0.16406 0.24609-0.3125 0.50781-0.4375 0.77734-0.070313 0.14844-0.10156 0.41406-0.25391 0.50781-0.22656 0.13672-0.37891-0.125-0.42969-0.3125-0.19922-0.69922-0.22266-1.4844-0.22656-2.207-0.007812-1.5781 0.24219-3.1484 0.52344-4.6953 0.011719-0.0625 0.023437-0.125 0.035156-0.1875 0.11719-0.62891 0.10156-1.3359 0.03125-1.9648-0.027344-0.25-0.25391-0.42969-0.50391-0.39844-0.25 0.027343-0.42969 0.25391-0.39844 0.50391 0.046875 0.39453-0.42969 0.70312-1.1016 1.0938l-0.26562 0.15625c-0.51953 0.3125-0.96484 0.73828-1.3164 1.2266-0.14844 0.20703-0.26953 0.60937-0.44531 0.77344-0.42578 0.39062-0.48438-0.17188-0.49609-0.48828-0.13672-3.3867 1.1094-6.7539 3.4219-9.2344 0.17188-0.18359 0.16016-0.47266-0.023437-0.64453-0.18359-0.17188-0.47266-0.16016-0.64453 0.023437-2.4766 2.6562-3.8125 6.2617-3.6641 9.8906 0.0625 1.5742 0.4375 2.75 1.1445 3.5977 0.089844 0.10547 0.21875 0.16406 0.34766 0.16406 0.066407 0 0.13672-0.015625 0.19922-0.046875 0.1875-0.09375 0.28906-0.30078 0.24219-0.50781-0.33594-1.5078 0.37891-3.1758 1.6992-3.9766 0.16016-0.097657 0.33984-0.24219 0.51953-0.28516 0.078125-0.019531 0.16797-0.011718 0.22656 0.042969 0.19141 0.17578-0.015625 0.72656-0.054687 0.94141-0.058594 0.35547-0.11719 0.71484-0.16406 1.0703-0.375 2.6914-0.44141 5.6445 1.1211 8.0039 0.085937 0.12891 0.23047 0.20312 0.37891 0.20312 0.046875 0 0.097657-0.007812 0.14453-0.023437 0.19531-0.066406 0.32031-0.25391 0.30859-0.46094-0.09375-1.5469 0.59375-3.1172 1.7969-4.0977 0.19531-0.16016 0.22266-0.44531 0.066407-0.64062-0.16016-0.19531-0.44531-0.22656-0.64063-0.066406z"/>
 <path d="m69.191 65.57c-0.25 0.03125-0.42969 0.25781-0.39844 0.50391 0.21875 1.8398-0.38281 3.7695-1.6055 5.1602-0.21875 0.24609-0.45703 0.49219-0.69922 0.73438-0.47266 0.48047-0.85547 1-1.2578 1.5117-0.30469 0.39062-0.70312-0.035157-1.0508-0.14844-0.24219-0.078125-0.49609 0.058594-0.57031 0.29688-0.074219 0.23828 0.058594 0.49609 0.29688 0.57031 0.36328 0.11328 0.64844 0.47266 0.71484 0.85156-0.007813 0.12109-0.003906 0.24219 0.007812 0.36719 0.019532 0.23047 0.21094 0.41016 0.45312 0.41797 0.23047 0 0.42188-0.17188 0.44922-0.39844 0.015625-0.13672 0.019531-0.27734 0.003906-0.41406 0.085938-0.88281 0.82422-1.6328 1.6016-2.4219 0.25391-0.25781 0.50391-0.51562 0.73438-0.77344 1.3906-1.582 2.0742-3.7773 1.8242-5.8672-0.027343-0.24219-0.25781-0.42188-0.50391-0.39063z"/>
 <path d="m62.465 73.574c-0.25391-0.023438-0.47266 0.15625-0.49609 0.40625-0.18359 1.875-0.85547 3.6797-1.9414 5.2188-0.23047 0.32422-0.48047 0.64844-0.73047 0.97266-0.21875 0.28125-0.4375 0.5625-0.64844 0.85156-0.10547 0.14453-0.30469 0.60547-0.50391 0.62109-0.30859 0.023438-0.48828-0.625-0.59375-0.83594-0.21484-0.43359-0.47656-0.83984-0.77734-1.2188-0.15625-0.19531-0.44531-0.22656-0.64063-0.066406-0.19531 0.15625-0.22656 0.44531-0.066406 0.64062 0.82031 1.0156 1.2734 2.2969 1.2891 3.5938-0.039063 0.25391-0.050781 0.51953-0.035157 0.78906 0.011719 0.23438 0.20313 0.42188 0.45313 0.42969 0.23047 0 0.42578-0.17578 0.45312-0.40234 0.027344-0.24609 0.039063-0.49219 0.039063-0.74219 0.1875-1.0938 0.94922-2.0742 1.7461-3.1055 0.26172-0.33594 0.51953-0.66797 0.75391-1.0039 1.1758-1.668 1.9023-3.6211 2.1016-5.6523 0.027343-0.25-0.15234-0.47266-0.40234-0.49609z"/>
 <path d="m62.277 67.52h0.027344c0.23828 0 0.4375-0.1875 0.45312-0.42578 0.054688-0.88672 0.58984-1.8008 1.4609-2.5078 0.84375-0.68359 1.9062-1.1289 2.8438-1.5234 1.1875-0.5 2.2539-0.89453 3.2852-0.66406 0.22266 0.050781 0.44531-0.070313 0.52344-0.28516 0.078125-0.21484-0.011719-0.45312-0.21094-0.55859-1.8594-0.99609-3.6914-1.8633-5.6133-1.4492-0.24609 0.050781-0.40234 0.29297-0.35156 0.53906 0.050782 0.24609 0.29297 0.40234 0.53906 0.35156 0.52344-0.10938 1.0625-0.10156 1.5859-0.015625 0.24609 0.042969 1.4609 0.21094 1.3594 0.59375-0.050782 0.1875-0.45703 0.25391-0.60938 0.30859-0.28906 0.10547-0.57422 0.22266-0.85937 0.34375-0.99219 0.41797-2.1172 0.89063-3.0625 1.6523-1.0703 0.86719-1.7266 2.0195-1.7969 3.1562-0.015624 0.25 0.17578 0.46875 0.42578 0.48438z"/>
 <path d="m61.789 60.629c0.058594 0.023438 0.11719 0.035156 0.17578 0.035156 0.17969 0 0.34766-0.10547 0.41797-0.27734 0.38672-0.91797 1.3711-1.3711 2.418-1.8516 0.81641-0.375 1.6602-0.76172 2.3125-1.4062 1.2305-1.2148 1.4727-3.3164 0.55859-4.7812-0.13281-0.21484-0.41406-0.27734-0.62891-0.14453-0.21484 0.13281-0.27734 0.41406-0.14453 0.62891 0.69922 1.1211 0.51562 2.7227-0.42578 3.6523-0.53516 0.53125-1.3086 0.88281-2.0508 1.2266-1.1562 0.53125-2.3555 1.0781-2.8789 2.3242-0.09375 0.23047 0.015625 0.49609 0.24609 0.59375z"/>
 <path d="m57.418 29.676c-0.20312 0.14844-0.25 0.43359-0.10156 0.63672 1.0117 1.3945 1.2461 3.3281 0.60156 4.9258-0.085938 0.21875 0.003906 0.46484 0.21094 0.57422 0.066406 0.035156 0.14062 0.050781 0.21094 0.050781 0.14844 0 0.29688-0.074219 0.38281-0.20703 0.60938-0.93359 1.75-1.6211 3.1367-1.8828 1.3008-0.24609 2.668-0.13672 3.9883-0.027344 0.24609 0.019531 0.46875-0.16406 0.48828-0.41797 0.019531-0.25-0.16797-0.46875-0.41797-0.48828-1.3828-0.10938-2.8125-0.22656-4.2305 0.042968-0.67188 0.12891-1.2539 0.37891-1.875 0.64063-0.53516 0.22656-0.60938-0.16016-0.64062-0.60547-0.027344-0.375-0.085937-0.74609-0.17969-1.1094-0.18359-0.72656-0.5-1.418-0.9375-2.0234-0.14844-0.21484-0.43359-0.25781-0.63672-0.10938z"/>
 <path d="m60.922 30.254c-0.046875-0.10156-0.13672-0.1875-0.25-0.23047-0.23438-0.089844-0.49609 0.027343-0.58594 0.26562-0.15234 0.40625-0.074219 0.88672 0.19531 1.2266 0.085938 0.10547 0.21484 0.16797 0.35156 0.16797h0.027344c0.14844-0.007813 0.28125-0.089844 0.35938-0.21484 0.28125-0.44922 0.78516-0.77344 1.3125-0.83984 0.25-0.03125 0.42578-0.25781 0.39453-0.50781s-0.25391-0.42188-0.50781-0.39453c-0.46875 0.058594-0.91797 0.24609-1.2969 0.52734z"/>
 <path d="m46.684 26.824c-0.17969 0.17578-0.17969 0.46484-0.003906 0.64453 1.4805 1.4922 2.2812 3.6367 2.1406 5.7344-0.015624 0.25 0.17188 0.46875 0.42188 0.48438h0.03125c0.23828 0 0.4375-0.18359 0.45312-0.42578 0.16016-2.3555-0.73828-4.7617-2.4023-6.4375-0.17188-0.17578-0.46094-0.17578-0.64062 0z"/>
 <path d="m49.379 25.992c-0.21875 0.12109-0.29688 0.39844-0.17578 0.61719 0.43359 0.77344 0.62109 1.6875 0.53516 2.5703-0.023437 0.25 0.15625 0.47266 0.40625 0.49609 0.015625 0 0.03125 0.003907 0.046875 0.003907 0.23047 0 0.42969-0.17578 0.45312-0.41016 0.10547-1.0664-0.12109-2.168-0.64453-3.1016-0.12109-0.22266-0.40234-0.30078-0.62109-0.17578z"/>
 <path d="m54.031 26.492c-2.6758 2.2266-3.9883 6.0117-3.2656 9.418 0.046875 0.21484 0.23438 0.35938 0.44531 0.35938 0.03125 0 0.0625-0.003906 0.09375-0.011719 0.24609-0.050781 0.40234-0.29297 0.35156-0.53906-0.65234-3.0859 0.53516-6.5117 2.9609-8.5312 0.19141-0.16016 0.21875-0.44922 0.058593-0.64062-0.16406-0.1875-0.44922-0.21094-0.64453-0.054687z"/>
 <path d="m40.473 19.168c0.03125 0.25 0.26562 0.42969 0.50781 0.39844 0.73828-0.089844 1.4102-0.53516 1.8438-1.2305 0.12109-0.19531 0.22266-0.40234 0.29297-0.62109 0.054687-0.17188 0.054687-0.38281 0.21875-0.49219 0.23828-0.16016 0.79687 0.28125 1.0039 0.39844 0.35938 0.20312 0.71484 0.42188 1.0625 0.65234 0.70703 0.46875 1.3828 0.98047 2.0195 1.5391 0.10938 0.097656 0.26172 0.13672 0.40625 0.10156 0.14453-0.035156 0.26172-0.13672 0.31641-0.27344 0.18359-0.45703 0.55078-0.83984 0.99609-1.0625 0.10938 0.52344 0.375 1.0117 0.75781 1.3828 0.085937 0.082031 0.19922 0.12891 0.31641 0.12891 0.046875 0 0.09375-0.007813 0.13672-0.019532 0.16016-0.050781 0.27734-0.18359 0.30859-0.34766 0.078125-0.39453 0.62891-0.625 1.1094-0.64062 0.26172-0.011719 0.52344 0.019531 0.78516 0.046875 0.40234 0.039063 0.81641 0.082032 1.25 0.019532 0.70703-0.10156 1.2969-0.44922 1.8672-0.78516 0.19531-0.11719 0.39453-0.23047 0.59375-0.33594 0.60938-0.31641 1.4375-0.51562 1.9297-0.11719 0.19531 0.15625 0.48438 0.125 0.64063-0.070312 0.15625-0.19531 0.125-0.48047-0.070313-0.64062-0.70703-0.57031-1.8008-0.5625-2.918 0.019531-0.21484 0.10938-0.42578 0.23438-0.63672 0.35938-0.51563 0.30469-1.0078 0.59375-1.5312 0.66797-0.32031 0.046875-0.66406 0.011718-1.0312-0.023438-0.30078-0.03125-0.60156-0.058594-0.90234-0.050781-0.55469 0.015625-1.1758 0.22266-1.5742 0.62891-0.12109-0.25391-0.18359-0.53906-0.17188-0.82031 0.003906-0.14062-0.054688-0.27344-0.16016-0.36328-0.10547-0.089844-0.24609-0.12891-0.38281-0.097657-0.75781 0.15234-1.4297 0.60938-1.8594 1.2422-1.4297-1.1797-3.0117-2.1484-4.7148-2.8867-0.16406-0.070312-0.35937-0.039062-0.48828 0.085938-0.13281 0.12109-0.17969 0.3125-0.12109 0.48437 0.15234 0.43359 0.074218 0.96484-0.20703 1.4141s-0.72266 0.75391-1.1797 0.80859c-0.26562 0.023437-0.44531 0.25-0.41406 0.5z"/>
 <path d="m68.535 25.969c-0.42969 0.54688-0.87891 1.1133-1.0977 1.8242-0.074219 0.23828 0.058594 0.49609 0.30078 0.57031 0.046875 0.015625 0.089844 0.019531 0.13672 0.019531 0.19531 0 0.375-0.125 0.43359-0.32031 0.17188-0.55078 0.54688-1.0273 0.94531-1.5312 0.24219-0.30859 0.49609-0.62891 0.71094-0.98047 0.75-1.2305 0.94922-2.7891 0.52734-4.1719-0.074219-0.23828-0.32422-0.375-0.56641-0.30469-0.23828 0.074219-0.375 0.32812-0.30469 0.56641 0.34766 1.1367 0.18359 2.418-0.43359 3.4336-0.1875 0.30859-0.41406 0.58984-0.65234 0.89453z"/>
 <path d="m73.527 25.824c-0.089844-0.23438-0.35547-0.35156-0.58984-0.26172-1.6367 0.63281-3.0391 1.8906-3.8477 3.4492-0.11328 0.22266-0.027344 0.49609 0.19531 0.61328 0.066406 0.035156 0.14062 0.050781 0.21094 0.050781 0.16406 0 0.32422-0.089843 0.40234-0.24609 0.70703-1.3633 1.9375-2.4648 3.3672-3.0195 0.23438-0.089844 0.35156-0.35156 0.26172-0.58594z"/>
 <path d="m71.379 30.668c0.09375-0.027344 0.17969-0.089844 0.24219-0.17578 0.12891-0.18359 0.39453-0.27734 0.60547-0.21094 0.23828 0.074219 0.49219-0.058594 0.57031-0.30078 0.074219-0.23828-0.058594-0.49609-0.30078-0.57031-0.58984-0.18359-1.2734 0.054688-1.625 0.5625-0.14062 0.20703-0.089844 0.48828 0.11719 0.63281 0.11719 0.085937 0.25781 0.10156 0.39062 0.0625z"/>
 <path d="m33.281 26.871c-1.0664 0.066406-2.0352-0.66016-2.582-1.3594-0.67578-0.86328-1.0586-1.9453-1.4297-2.9922l-1.082-3.0508c-0.085938-0.23828-0.34766-0.35938-0.57812-0.27734-0.23828 0.085938-0.35938 0.34375-0.27734 0.57812l1.082 3.0508c0.37891 1.0625 0.80469 2.2695 1.5703 3.2461 0.84766 1.0859 2.0156 1.7148 3.1602 1.7148 0.066407 0 0.12891-0.003906 0.19531-0.007812 0.25-0.015626 0.44141-0.23047 0.42578-0.48047-0.019531-0.24609-0.23828-0.4375-0.48438-0.42188z"/>
 <path d="m29.527 28.684c0.078125 0 0.15625-0.019532 0.22656-0.0625 0.21875-0.125 0.29297-0.40234 0.16797-0.62109-0.53516-0.92969-1.293-1.7227-2.1914-2.3008-0.21094-0.13672-0.49219-0.074219-0.62891 0.13672-0.13672 0.21094-0.074218 0.49219 0.13672 0.62891 0.77734 0.5 1.4336 1.1875 1.8945 1.9922 0.085938 0.14453 0.23828 0.22656 0.39453 0.22656z"/>
 <path d="m26.789 28.973c-0.66016 0.10156-1.1953 0.51562-1.3945 1.082-0.085937 0.23828 0.039063 0.49609 0.27734 0.57812 0.050781 0.019532 0.10156 0.027344 0.15234 0.027344 0.1875 0 0.36328-0.11719 0.42969-0.30469 0.10547-0.29688 0.41797-0.44531 0.67578-0.48438 0.26172-0.039063 0.60156 0.007812 0.79297 0.25781 0.15234 0.19922 0.4375 0.23828 0.63672 0.089844 0.19922-0.15234 0.23828-0.4375 0.089844-0.63672-0.36328-0.47656-0.99609-0.71094-1.6602-0.60938z"/>
<text x="0.0" y="117.5" font-size="5.0" font-weight="bold" font-family="Arbeit Regular, Helvetica, Arial-Unicode, Arial, Sans-serif" fill="#000000">Created by Ben Didier</text><text x="0.0" y="122.5" font-size="5.0" font-weight="bold" font-family="Arbeit Regular, Helvetica, Arial-Unicode, Arial, Sans-serif" fill="#000000">from Noun Project</text></svg>